<?xml version="1.0" encoding="utf-8"?>
<!-- Generator: Adobe Illustrator 24.1.3, SVG Export Plug-In . SVG Version: 6.00 Build 0)  -->
<svg version="1.1" id="Layer_1" xmlns="http://www.w3.org/2000/svg" xmlns:xlink="http://www.w3.org/1999/xlink" x="0px" y="0px"
	 viewBox="0 0 300 200" style="enable-background:new 0 0 300 200;" xml:space="preserve">
<style type="text/css">
	.st0{fill:#FFFFFF;}
	.st1{fill:#333333;}
</style>
<path class="st0" d="M108.5,75.3h-0.7c-0.5,1.3-1.2,2.5-2,3.7c-0.8,1.2-1.7,2.3-2.9,3.2c-1.1,0.9-2.5,1.6-4,2.2s-3.3,0.8-5.3,0.8
	c-6.4,0-11.2-2.8-14.5-8.4S74.2,63.2,74.2,53c0-10.7,1.9-18.9,5.8-24.6S89.7,20,97.7,20c3.1,0,5.9,0.4,8.3,1.3
	c2.4,0.8,4.4,2,6.1,3.5c1.7,1.5,3.1,3.3,4.2,5.3c1.1,2.1,2,4.3,2.7,6.7l-10.8,3.1c-0.4-1.3-0.9-2.6-1.4-3.9c-0.5-1.3-1.2-2.4-2-3.3
	c-0.8-0.9-1.8-1.7-2.9-2.3c-1.1-0.6-2.6-0.9-4.2-0.9c-3.9,0-6.7,1.6-8.4,4.7c-1.7,3.1-2.5,7.4-2.5,12.8v10.1c0,2.7,0.2,5.2,0.6,7.5
	c0.4,2.3,1,4.2,1.9,5.8c0.9,1.6,2.1,2.9,3.5,3.8c1.4,0.9,3.2,1.3,5.4,1.3c3.4,0,5.9-1,7.7-3c1.7-2,2.6-4.6,2.6-7.7v-5.1H97v-8.6h22
	v32.9h-10.6L108.5,75.3L108.5,75.3z"/>
<path class="st0" d="M39.6,179.8c-5.4,0-10-0.9-13.9-2.8c-3.8-1.9-6.9-4.3-9.3-7.3l7.1-7.4c2.4,2.7,4.9,4.7,7.6,6
	c2.7,1.3,5.7,1.9,8.8,1.9c3.6,0,6.4-0.8,8.3-2.5c1.9-1.6,2.9-4,2.9-7.1c0-2.5-0.7-4.5-2.2-5.8c-1.4-1.3-3.9-2.2-7.3-2.8L35,151
	c-5.8-1-10-3.1-12.5-6.4s-3.7-7-3.7-11.4c0-6,2-10.6,5.9-13.8c3.9-3.2,9.3-4.8,16.2-4.8c4.9,0,9.2,0.8,12.8,2.3
	c3.6,1.5,6.5,3.7,8.6,6.3l-7,7.4c-1.7-2-3.7-3.6-6-4.7c-2.3-1.2-5.1-1.8-8.3-1.8c-6.9,0-10.3,2.8-10.3,8.6c0,2.4,0.7,4.3,2.2,5.5
	c1.4,1.3,3.9,2.2,7.4,2.8l6.6,1.2c5.5,1,9.5,3,12.2,6s4,6.9,4,11.5c0,2.9-0.5,5.6-1.5,8.1c-1,2.4-2.5,4.5-4.5,6.3
	c-2,1.8-4.4,3.1-7.4,4.1C46.8,179.3,43.4,179.8,39.6,179.8z"/>
<path class="st0" d="M102.2,151.6H83.8v27.1H72v-63h11.8v26.2h18.4v-26.2H114v63h-11.8V151.6z"/>
<path class="st0" d="M128.6,178.7v-8.8h14.2v-45.3h-14.2v-8.8h40.1v8.8h-14.2v45.3h14.2v8.8H128.6z"/>
<g>
	<path class="st0" d="M267.4,125.5v53.3h-11.7v-53.3h-19v-9.7h49.7v9.7C286.4,125.5,267.4,125.5,267.4,125.5z"/>
	<g>
		<g>
			<path class="st1" d="M22.3,177.2c-0.8-0.6-1.3-0.9-1.3-0.9C21.6,176.9,22,177.2,22.3,177.2z"/>
			<path class="st1" d="M169.5,114.9h-41.6v10.4h0v0l7.6,7.6h6.6v36.2h-14.2h0v10.4h0l7.6,7.6h41.6v-10.4l-7.6-7.6v0h0h-6.6v-36.2
				h14.2v-10.4L169.5,114.9L169.5,114.9z"/>
			<path class="st1" d="M127.9,20.3L127.9,20.3l0,10.4h0l7.6,7.6h6.6v36.2h-14.2h0v10.4h0l7.6,7.6h41.6V82.1l-7.6-7.6h-6.6V38.3
				h14.2V27.9l-7.6-7.6H127.9z"/>
			<path class="st1" d="M78.8,77.6c3.4,5.5,8.4,8.3,14.8,8.3c2.1,0,3.9-0.3,5.6-0.9c1.6-0.6,3-1.3,4.2-2.3c0.4-0.3,0.8-0.7,1.2-1.1
				l3.1,3.1h12.1v0h0V50.4h0l-6.1-6.1H90.2l0,0h0v10.1h0l6.1,6.1h0v0h5.3c-0.3,2.2-1,4-2.3,5.5c-1.6,1.9-3.9,2.8-7.1,2.8
				c-1.1,0-2.1-0.1-3-0.4c-0.4-1.2-0.8-2.4-1-3.8c-0.4-2.2-0.6-4.7-0.6-7.3V47.1c0-5.3,0.8-9.5,2.4-12.5c1.5-2.9,4.1-4.3,7.7-4.3
				c0.9,0,1.8,0.1,2.5,0.3c0.4,1.1,0.8,2.2,1.2,3.4l0.2,0.7l0,0l6.1,6.1l0,0l12.3-3.5l0,0l0,0l0-0.1l-0.2-0.7
				c-0.7-2.4-1.6-4.8-2.7-6.9c-1.2-2.1-2.6-4-4.4-5.6c-0.7-0.6-1.5-1.2-2.4-1.7c-1-1.7-2.3-3.1-3.7-4.4c-1.8-1.5-3.9-2.8-6.4-3.6
				c-2.4-0.9-5.3-1.3-8.5-1.3c-8.2,0-14.4,3-18.4,8.8c-3.9,5.8-5.9,14.2-5.9,25c0,10.3,1.7,18.4,5,24.1C74.1,74,76.2,76.2,78.8,77.6
				z M113.1,31.4l-1.9,0.5L113.1,31.4L113.1,31.4z M101.7,54.4L101.7,54.4L101.7,54.4L101.7,54.4z M107.7,77.2L107.7,77.2
				C107.7,77.2,107.7,77.2,107.7,77.2L107.7,77.2z"/>
			<path class="st1" d="M195.8,84.8L195.8,84.8l7.6-7.6V57.7h18.9l7.6-7.6h-7.6v0h7.6V38.9h-26.5v-7.3h21.7l7.6-7.6h-7.6v0h7.6V12.7
				h-42.7l0,0l-0.1,0l-7.4,7.6v64.5H195.8L195.8,84.8z M220.8,50.2h-17.3v0L220.8,50.2L220.8,50.2z M223.7,24h-20.2v0L223.7,24
				L223.7,24z"/>
			<path class="st1" d="M122.4,107.4L122.4,107.4H109l-7.6,7.6h0v18.6h-9.3v-26.2l0,0h0H78.8l-7.6,7.6h0v0v64.5h13.3l7.6-7.6v-19.5
				h9.3v27.1h13.3l7.6-7.6h0L122.4,107.4L122.4,107.4z M109,171.9v-27.1h0L109,171.9L109,171.9z"/>
			<path class="st1" d="M190.5,107.4L190.5,107.4L190.5,107.4L190.5,107.4l-0.2,0l-7.4,7.6v64.5h13.3h0v0l7.6-7.6v-19.5h18.8
				l7.6-7.6v-11.3h-26.5v-7.3h21.7l7.6-7.6h0v-11.3L190.5,107.4L190.5,107.4z M196.3,126.2L196.3,126.2L196.3,126.2L196.3,126.2z
				 M196.3,152.4L196.3,152.4L196.3,152.4L196.3,152.4z M190.5,171.9v-55.4h0L190.5,171.9L190.5,171.9z"/>
			<path class="st1" d="M287.1,122.5h7.6l-7.6-7.6H236v0v11.3l7.6,7.6v-7.6h0v7.6h11.4v45.7l7.6,7.6h13.2h0v-53.3h19v-11.3
				L287.1,122.5L287.1,122.5z M243.6,124.7v-2.2h42.1v0h-42L243.6,124.7L243.6,124.7z"/>
			<path class="st1" d="M47.1,141.5l-6.6-1.2c-3.3-0.6-5.7-1.5-7-2.6c-1.3-1.1-1.9-2.8-1.9-5c0,0,0-0.1,0-0.1
				c0.6-0.1,1.3-0.1,1.9-0.1c3.1,0,5.7,0.6,8,1.7c2.2,1.1,4.2,2.7,5.8,4.5l0.6,0.6l7.3-7.7l0,0l8.2-8.7l-0.3-0.2
				c-2.2-2.8-5.2-5-8.9-6.6c-3.7-1.6-8.1-2.4-13.1-2.4c-7.1,0-12.7,1.7-16.7,5c-1.8,1.5-3.2,3.3-4.2,5.4c-1.2,0.6-2.3,1.4-3.4,2.2
				c-4.1,3.4-6.1,8.2-6.1,14.4c0,4.5,1.3,8.5,3.9,11.9c2.6,3.4,6.9,5.6,12.9,6.6l6.7,1.1c3.3,0.5,5.6,1.4,6.9,2.6
				c1.3,1.2,1.9,2.9,1.9,5.2c0,0.3,0,0.7,0,1c-0.9,0.1-1.8,0.2-2.8,0.2c-3,0-5.9-0.6-8.5-1.9c-2.6-1.2-5.1-3.2-7.4-5.8l-0.5-0.6
				l-7.6,7.6v0l-8.2,8.5l0.4,0.5c2.5,3.1,5.7,5.7,9.6,7.5c3.9,1.9,8.7,2.8,14.2,2.8c3.9,0,7.3-0.5,10.3-1.5c3-1,5.6-2.4,7.6-4.3
				c1.6-1.5,3-3.2,4-5.1c1.3-0.7,2.5-1.6,3.6-2.5c2.1-1.8,3.7-4.1,4.7-6.6c1.1-2.5,1.6-5.3,1.6-8.4c0-4.9-1.4-8.9-4.2-12
				C56.9,144.7,52.7,142.6,47.1,141.5z"/>
		</g>
	</g>
</g>
<path class="st0" d="M136.2,91.7v-8.8h14.2V37.5h-14.2v-8.8h40.1v8.8h-14.2v45.3h14.2v8.8H136.2z"/>
<path class="st0" d="M190.8,76.5v-63H232v9.7h-29.3v16.4h26.5v9.7h-26.5v27.1H190.8z"/>
<path class="st0" d="M102.4,69.2h-0.7c-0.5,1.3-1.2,2.5-2,3.7c-0.8,1.2-1.7,2.3-2.9,3.2c-1.1,0.9-2.5,1.6-4,2.2
	c-1.5,0.5-3.3,0.8-5.3,0.8c-6.4,0-11.2-2.8-14.5-8.4c-3.3-5.6-4.9-13.5-4.9-23.7c0-10.7,1.9-18.9,5.8-24.6s9.8-8.5,17.8-8.5
	c3.1,0,5.9,0.4,8.3,1.3c2.4,0.8,4.4,2,6.1,3.5c1.7,1.5,3.1,3.3,4.2,5.3c1.1,2.1,2,4.3,2.7,6.7l-10.8,3.1c-0.4-1.3-0.9-2.6-1.4-3.9
	c-0.5-1.3-1.2-2.4-2-3.3s-1.8-1.7-2.9-2.3c-1.1-0.6-2.6-0.9-4.2-0.9c-3.9,0-6.7,1.6-8.4,4.7c-1.7,3.1-2.5,7.4-2.5,12.8v10.1
	c0,2.7,0.2,5.2,0.6,7.5c0.4,2.3,1,4.2,1.9,5.8c0.9,1.6,2.1,2.9,3.5,3.8s3.2,1.3,5.4,1.3c3.4,0,5.9-1,7.7-3c1.7-2,2.6-4.6,2.6-7.7
	v-5.1H90.9v-8.6h22V78h-10.6L102.4,69.2L102.4,69.2z"/>
<path class="st0" d="M109.8,144H91.4v27.1H79.6v-63h11.8v26.2h18.4v-26.2h11.8v63h-11.8L109.8,144L109.8,144z"/>
<path class="st0" d="M136.2,186.3v-8.8h14.2v-45.3h-14.2v-8.8h40.1v8.8h-14.2v45.3h14.2v8.8H136.2z"/>
<path class="st0" d="M191.3,171.2v-63h41.2v9.7h-29.4v16.4h26.5v9.7h-26.5v27.1H191.3z"/>
<path class="st0" d="M275,133.1v53.3h-11.7v-53.3h-19v-9.7H294v9.7H275z"/>
<path class="st0" d="M32,187.4c-5.4,0-10-0.9-13.9-2.8c-3.8-1.9-6.9-4.3-9.3-7.3l7.1-7.4c2.4,2.7,4.9,4.7,7.6,6
	c2.7,1.3,5.7,1.9,8.8,1.9c3.6,0,6.4-0.8,8.3-2.5c1.9-1.6,2.9-4,2.9-7.1c0-2.5-0.7-4.5-2.2-5.8c-1.4-1.3-3.9-2.2-7.3-2.8l-6.7-1.1
	c-5.8-1-10-3.1-12.5-6.4s-3.7-7-3.7-11.4c0-6,2-10.6,5.9-13.8c3.9-3.2,9.3-4.8,16.2-4.8c4.9,0,9.2,0.8,12.8,2.3
	c3.6,1.5,6.5,3.7,8.6,6.3l-7,7.4c-1.7-2-3.7-3.6-6-4.7c-2.4-1.2-5.1-1.8-8.3-1.8c-6.9,0-10.3,2.8-10.3,8.6c0,2.4,0.7,4.3,2.2,5.5
	c1.4,1.3,3.9,2.2,7.4,2.8l6.6,1.2c5.5,1,9.5,3,12.2,6s4,6.9,4,11.5c0,2.9-0.5,5.6-1.5,8.1c-1,2.4-2.5,4.5-4.5,6.3
	c-2,1.8-4.4,3.1-7.4,4.1C39.2,186.9,35.8,187.4,32,187.4z"/>
</svg>
